<?xml version="1.0" encoding="iso-8859-1"?>
<!-- Uploaded to: SVG Repo, www.svgrepo.com, Generator: SVG Repo Mixer Tools -->
<svg height="800px" width="800px" version="1.1" id="Layer_1" xmlns="http://www.w3.org/2000/svg" xmlns:xlink="http://www.w3.org/1999/xlink" 
	 viewBox="0 0 511.84 511.84" xml:space="preserve">
<path style="fill:#8CC153;" d="M500.707,285.786c0.437-1.154,0.702-2.436,0.702-3.764c0-5.889-4.78-10.652-10.653-10.652
	c-4.514,0-8.372,2.811-9.918,6.764c-7.107,21.117-27.07,36.348-50.531,36.348c-18.495,0-34.803-9.482-44.362-23.805
	c4.077-0.234,7.825-2.797,9.372-6.857c2.094-5.514-0.672-11.686-6.186-13.746l-19.932-7.576c-4.795-1.828-10.121,0.047-12.777,4.248
	c-0.375,0.594-0.703,1.234-0.953,1.938l-7.575,19.932c-2.108,5.498,0.672,11.652,6.17,13.746c4.39,1.656,9.185,0.25,12.013-3.188
	c12.996,21.916,36.879,36.646,64.23,36.646C462.89,335.788,490.553,314.903,500.707,285.786z"/>
<g>
	<path style="fill:#A0D468;" d="M428.744,197.36c18.479,0,34.771,9.466,44.346,23.805c-4.077,0.234-7.842,2.781-9.356,6.857
		c-2.108,5.499,0.64,11.668,6.154,13.73l19.946,7.592c1.25,0.468,2.531,0.687,3.797,0.687c4.279-0.016,8.31-2.608,9.934-6.873
		l7.576-19.932c2.094-5.514-0.672-11.668-6.186-13.761c-4.373-1.671-9.169-0.234-11.98,3.202
		c-13.012-21.931-36.896-36.646-64.23-36.646c-32.6,0-60.264,20.916-70.416,50.032c-0.438,1.171-0.703,2.437-0.703,3.765
		c0,5.889,4.779,10.653,10.668,10.637c4.5,0.016,8.357-2.796,9.904-6.748C385.305,212.59,405.267,197.36,428.744,197.36z"/>
	<path style="fill:#A0D468;" d="M308.344,280.882c-9.232,18.635-28.445,31.475-50.61,31.475c-31.131,0-56.451-25.336-56.451-56.467
		c0-31.116,25.32-56.452,56.451-56.452c22.165,0,41.378,12.84,50.61,31.475l19.119-9.497c-12.715-25.648-39.16-43.299-69.729-43.299
		c-42.956,0-77.789,34.817-77.789,77.773c0,42.971,34.833,77.789,77.789,77.789c30.569,0,57.015-17.65,69.729-43.299
		L308.344,280.882z"/>
	<path style="fill:#A0D468;" d="M150.345,259.046h5.123c0.047-1.078,0.078-2.172,0.078-3.266c0-42.956-34.833-77.773-77.757-77.773
		C34.818,178.007,0,212.824,0,255.78c0,42.971,34.817,77.789,77.789,77.789c34.333,0,63.512-22.291,73.79-53.203h-22.993
		c-9.153,18.854-28.491,31.865-50.797,31.865c-30.053,0-54.687-23.57-56.374-53.186h112.716h16.214V259.046z M77.789,199.329
		c24.805,0,45.908,16.104,53.452,38.41H24.289C31.85,215.433,52.952,199.329,77.789,199.329z"/>
</g>
</svg>