<?xml version="1.0" encoding="iso-8859-1"?>
<!-- Uploaded to: SVG Repo, www.svgrepo.com, Generator: SVG Repo Mixer Tools -->
<svg fill="#000000" height="800px" width="800px" version="1.1" id="Layer_1" xmlns="http://www.w3.org/2000/svg" xmlns:xlink="http://www.w3.org/1999/xlink" 
	 viewBox="0 0 335.059 335.059" xml:space="preserve">
<g>
	<g>
		<g>
			<path d="M307.559,36.574H27.5C12.337,36.574,0,48.91,0,64.074v90c0,26.191,21.309,47.5,47.5,47.5c15.348,0,232.086,0,240.059,0
				c26.191,0,47.5-21.309,47.5-47.5v-90C335.059,48.91,322.722,36.574,307.559,36.574z M109.448,186.574H47.5
				c-15.34,0-28.232-10.683-31.627-25h93.575V186.574z M210.61,186.574h-86.162v-25h86.162V186.574z M287.559,186.574H225.61v-25
				h93.575C315.791,175.891,302.898,186.574,287.559,186.574z M320.059,146.574c-10.539,0-290.939,0-305.059,0v-82.5
				c0-6.893,5.607-12.5,12.5-12.5h280.059c6.893,0,12.5,5.607,12.5,12.5V146.574z"/>
			<path d="M297.559,56.574H37.5c-9.649,0-17.5,7.851-17.5,17.5v35c0,9.649,7.851,17.5,17.5,17.5h260.059
				c9.649,0,17.5-7.851,17.5-17.5v-35C315.059,64.425,307.208,56.574,297.559,56.574z M300.059,109.074c0,1.378-1.121,2.5-2.5,2.5
				H37.5c-1.379,0-2.5-1.122-2.5-2.5v-35c0-1.378,1.121-2.5,2.5-2.5h260.059c1.379,0,2.5,1.122,2.5,2.5V109.074z"/>
			<path d="M122.579,271.902c-0.025-1.729,0.623-3.364,1.827-4.605c3.995-4.117,6.147-9.543,6.06-15.279
				c-0.165-10.902-6.891-15.447-15.955-24.237c-2.974-2.884-7.722-2.811-10.605,0.163c-2.884,2.974-2.812,7.722,0.162,10.606
				c9.925,9.624,11.347,10.226,11.4,13.697c0.026,1.729-0.622,3.364-1.826,4.604c-3.996,4.117-6.148,9.543-6.062,15.279
				c0.165,10.924,6.928,15.483,15.956,24.237c2.973,2.884,7.722,2.811,10.605-0.163c2.884-2.974,2.812-7.722-0.162-10.605
				C124.052,275.972,122.632,275.369,122.579,271.902z"/>
			<path d="M171.084,271.902c-0.025-1.729,0.623-3.364,1.827-4.605c3.996-4.117,6.148-9.543,6.062-15.279
				c-0.166-10.924-6.928-15.482-15.956-24.237c-2.975-2.884-7.723-2.811-10.605,0.163c-2.884,2.974-2.812,7.722,0.162,10.606
				c9.928,9.627,11.349,10.23,11.401,13.697c0.025,1.729-0.623,3.364-1.827,4.604c-3.996,4.117-6.149,9.543-6.062,15.279
				c0.087,5.736,2.403,11.095,6.521,15.088l9.435,9.149c2.973,2.884,7.722,2.811,10.605-0.163c2.884-2.974,2.811-7.722-0.162-10.605
				C172.557,275.972,171.137,275.369,171.084,271.902z"/>
			<path d="M219.59,271.902c-0.026-1.729,0.622-3.364,1.826-4.605c3.996-4.117,6.148-9.543,6.061-15.279
				c-0.165-10.924-6.928-15.482-15.956-24.237c-2.974-2.884-7.722-2.811-10.605,0.163c-2.884,2.974-2.811,7.722,0.162,10.606
				c9.928,9.627,11.349,10.23,11.401,13.697c0.025,1.729-0.623,3.364-1.827,4.605c-3.995,4.117-6.147,9.543-6.061,15.279
				c0.087,5.736,2.402,11.095,6.521,15.088l9.435,9.149c2.973,2.884,7.721,2.811,10.605-0.163c2.884-2.974,2.812-7.722-0.162-10.605
				C221.065,275.975,219.643,275.372,219.59,271.902z"/>
		</g>
	</g>
</g>
</svg>