<?xml version="1.0" encoding="UTF-8"?>
<svg id="Layer_1" data-name="Layer 1" xmlns="http://www.w3.org/2000/svg" viewBox="0 0 256 256">
  <defs>
    <style>
      .cls-1 {
        fill: #29ace3;
      }
    </style>
  </defs>
  <path class="cls-1" d="M118.2,127.04v32.98h7.77v-32.98h-7.77Zm-13.98-12.57h-7.99c-.89,0-.74,.81-.74,.81,.15,1.04,.37,2.74,.37,6.29,0,7.84-.96,19.08-9.54,29.8l-.59,.74s-5.18-36.09-5.25-36.76c0,0,0-.81-.74-.81h-8.06c-.74,0-.74,.81-.74,.81-.22,4.14-2.51,38.9-27.88,44.52,5.4,.59,11.91-1.11,17.6-4.59,7.03-4.36,11.76-10.8,13.31-18.19,0,0,3.11,19.38,3.48,23.81v.3l-.22,.15c-7.1,3.77-15.16,5.84-23.22,5.84-19.97,0-37.64-11.83-45.41-29.88,4.59,21.23,23.52,36.68,45.63,36.68,25.81,0,41.19-21.59,43.86-36.98,0,0,3.48,22.41,3.55,23.15h10.58c-.15-.96-7.17-44-7.25-44.67,0,0,0-.81-.74-.81v-.22ZM14.81,133.32c0-23.67,19.97-42.89,44.45-42.89,15.16,0,29.29,7.62,37.5,19.97-5.99-16.86-22.7-28.4-41.41-28.4-24.18,0-43.86,18.86-43.86,42.01,0,6.36,1.55,12.57,4.44,18.27-.67-2.88-1.11-5.92-1.11-8.87v-.07Zm185.33-1.55c-2.81-3.25-6.73-4.95-11.46-4.95s-8.87,1.55-12.13,4.66c-3.18,3.03-4.81,7.1-4.81,12.13s1.55,8.95,4.66,11.91c3.11,2.96,7.62,4.44,13.24,4.44,10.95,0,13.31-7.54,14.2-9.98l-2.81-.89c-2.51,4.59-8.14,4.88-11.46,4.66-2.37-.15-4.51-.96-6.21-2.14-1.7-1.26-2.88-3.03-3.4-5.77l-.15-1.04h24.55c-.07-5.4-1.48-9.76-4.22-12.94v-.07Zm-19.75,8.36c-.37,0-.37-.37-.37-.52,.3-1.92,1.04-3.4,2.37-4.73,1.48-1.55,3.77-2.44,6.21-2.44,2.22,0,3.99,.67,5.55,1.92,1.26,1.11,2.14,2.66,2.66,4.81,.07,.22,.22,.89-.37,.89h-16.05v.07Zm44.45-13.46c-9.32,0-12.65,5.69-13.68,8.36,0,.07-.37,.96-.37,.96l3.11,1.04s2-5.77,9.91-5.4c7.99,.3,7.03,6.88,7.03,7.91-4.44-1.33-10.72-1.18-14.86,.67-5.18,2.37-5.99,7.1-5.77,10.58,.22,5.18,4.81,8.8,10.72,9.1,5.32,.3,7.69-.89,9.91-3.03l-.07,3.03h7.03v-22.7c.15-3.92-2.59-10.58-12.94-10.58v.07Zm5.92,25.59c0,.52-.15,.89-.59,1.11-1.33,.67-4.14,1.55-7.62,1.33-3.62-.3-5.03-2.88-5.25-3.99-.07-.44-.89-5.25,3.77-6.73,3.03-.96,6.88-.37,8.95,.22,.59,.15,.74,.52,.74,1.26v6.8Zm-105.31-37.79h-6.43c-.96,0-.81,.96-.81,.96v6.95h7.91v-7.03s.07-.81-.74-.81l.07-.07Zm39.49,0h-6.58c-.67,0-.67,.74-.67,.74v13.53l-.96-.52c-1.04-.52-2.07-.89-3.18-1.11s-2.44-.3-3.92-.3c-5.18,0-9.39,1.48-12.5,4.51-3.03,2.96-4.66,7.25-4.66,12.5,0,4.66,1.33,8.58,3.92,11.68,2.59,3.03,6.36,4.59,11.32,4.59,7.1,0,9.91-4.29,9.91-4.29v4.14h7.99v-44.67s0-.81-.67-.81Zm-7.69,36.53c-.74,.67-1.7,1.18-2.88,1.63-1.26,.52-2.74,.74-4.36,.74-2.66,0-4.81-.89-6.36-2.66-1.55-1.77-2.29-4.36-2.29-7.84s.74-5.92,2.14-7.47c1.48-1.63,3.7-2.44,6.66-2.44,1.55,0,3.03,.22,4.36,.74,1.18,.44,2.07,.89,2.74,1.48,.22,.22,.44,.59,.44,1.11v13.53c0,.52-.22,.89-.44,1.11v.07Zm85.34-42.01c-2.74,0-4.81,2.07-4.81,4.81s2.07,4.81,4.81,4.81,4.81-2.07,4.81-4.81-2.07-4.81-4.81-4.81Zm0,.67c2.29,0,4.07,1.85,4.07,4.14s-1.7,4.14-4.07,4.14-4.07-1.85-4.07-4.14,1.7-4.14,4.07-4.14Zm-1.04,4.44h1.18l1.55,2.44h.81l-1.63-2.44c.74-.15,1.41-.59,1.41-1.55s-.52-1.55-1.77-1.55h-2.14v5.55h.67v-2.44h-.07Zm0-.59v-1.92h1.26c.67,0,1.33,.15,1.33,.96,0,.96-.81,.96-1.63,.96h-.96Z"/>
</svg>